<svg xmlns="http://www.w3.org/2000/svg" xml:space="preserve" id="Layer_1" x="0" y="0" style="enable-background:new 0 0 1031.8 176.8" version="1.1" viewBox="0 0 1031.8 176.8">
      <style>
        .st0{fill:#fff;stroke:#fff;stroke-miterlimit:10}
      </style>
      <path d="M115.5 67.2C87.1 80 49.1 80.6 49.1 80.6c14 27.4 37 31.4 37 31.4 11.8 1.4 19.2-15.8 19.2-15.8.8-2.4 3.2-1.6 3.2-1.6 2.6 1 1.6 3.6 1.6 3.6-7.2 22.4-33 25.2-33 25.2-15.2 2.8-27-15.6-27-15.6C42.9 97 37.7 84.2 37.7 84.2c-16.4 19-23.4 33.2-23.4 33.2-3 6.8-3 10.6-3 10.6 0 1.6.4 2 .4 2 .4.8 0 1.2 0 1.2-.8.8-1.6-.4-1.6-.4C1.1 120.6.7 114 .7 114c-.6-6.8 7-17.2 7-17.2C15.9 85 21.9 78.2 21.9 78.2c-1.8-1.4-1.8-3.2-1.8-3.2-.2-2.4 3.2-4.2 3.2-4.2 1.4-.6 4.6-2.4 4.6-2.4 3.2-1.4 5.2-3.8 5.2-3.8 27.2-32.4 28.6-34.2 28.6-34.2.2-.4-.4-.4-.4-.4-31 7-44.8 12.6-44.8 12.6-.6.4 2.4 1.6 2.4 1.6 1.8.6 1.8 1.2 1.8 1.2.2 1-2.6 1-2.6 1l-9.4.8c-4.2 1-6.2-6-6.2-6C.3 34.8.1 31.6.1 31.6c-.6-2.6 3-3.8 3-3.8C49.5 11.4 89.9 11 89.9 11c55.2-2.2 56 24.4 56 24.4.2 19.2-30.4 31.8-30.4 31.8zM69.1 28.8s3.6 2.2 6 5c0 0 3 2.8.8 5.4L53.1 66.8s79-6.6 87.2-32.4c0 0-5.2-14.8-71.2-5.6z" class="st0"/>
      <path d="M168.7 94.4c-18.4 29.6-36.8 27.8-36.8 27.8-4.8-.6-6.2-2.6-6.2-2.6-8.8-3.6-9-15.2-9-15.2-.4-4.8 1.6-12 1.6-12 1.2-4.2 3-9.2 6.2-14.8 2-3.6 4.6-7.4 8-11.2s7.4-8 12.2-11.8c3-2.4 7.2-4.4 7.2-4.4 2.8-1.8 6.6-2.6 9.8-2.8 4.2-.2 7.4 3.2 7.4 3.2 3.2 3.4 4.4 7.4 4.4 7.4.6 1.8-1.2 2.4-1.2 2.4-1.6.2-2.2-.6-2.2-.6-.4-.8-1.4-.6-1.4-.6-15 3.6-30 23.6-30 23.6-15.8 22.2-11.2 33-11.2 33 .2.6 1.6.6 1.6.6 4.6.6 14.6-9 14.6-9 4.6-4.4 16.8-20.2 20.6-30.8 2.2-5.2 2.4-10 2.4-10 .2-2-1.2-2.6-1.2-2.6-.8-.4-.6-.8-.6-.8.2-.2.8-.4.8-.4 4.8-.4 7.6 3 7.6 3 2.8 2.8 2.6 7.2 2.6 7.2 1.2 8.4-7.2 21.4-7.2 21.4zM224.7 94.4c-18.4 29.6-36.8 27.8-36.8 27.8-4.8-.6-6.2-2.6-6.2-2.6-8.8-3.6-9-15.2-9-15.2-.4-4.8 1.6-12 1.6-12 1.2-4.2 3-9.2 6.2-14.8 2-3.6 4.6-7.4 8-11.2s7.4-8 12.2-11.8c3-2.4 7.2-4.4 7.2-4.4 2.8-1.8 6.6-2.6 9.8-2.8 4.2-.2 7.4 3.2 7.4 3.2 3.2 3.4 4.4 7.4 4.4 7.4.6 1.8-1.2 2.4-1.2 2.4-1.6.2-2.2-.6-2.2-.6-.4-.8-1.4-.6-1.4-.6-15 3.6-30 23.6-30 23.6-15.8 22.2-11.2 33-11.2 33 .2.6 1.6.6 1.6.6 4.6.6 14.6-9 14.6-9 4.6-4.4 16.8-20.2 20.6-30.8 2.2-5.2 2.4-10 2.4-10 .2-2-1.2-2.6-1.2-2.6-.8-.4-.6-.8-.6-.8.2-.2.8-.4.8-.4 4.8-.4 7.6 3 7.6 3 2.8 2.8 2.6 7.2 2.6 7.2 1.2 8.4-7.2 21.4-7.2 21.4zM286.9 54.2c-9.8 2.8-15.6 2.8-15.6 2.8-29.8 36-31 53.4-31 53.4-.2 3 1.4 4.6 1.4 4.6 1 .4 3-.6 3-.6 9.6-5.2 24.8-22.4 24.8-22.4l18-20.8c.8-.8 1.6-.2 1.6-.2.8.4-.2 1.6-.2 1.6-14.2 20.2-21.8 32.4-21.8 32.4-9.2 13.6-13.4 16-13.4 16-2.8 2-5.4 1.8-5.4 1.8-1.2.2-5.2-1.4-5.2-1.4-3-1.2-6.4-4.2-6.4-4.2-2.2-2-4.4-4.6-5.8-8-2.2-3.4-1.4-10.8-1.4-10.8.6-4.4 2.4-10 6.2-17.2 4.6-8.6 14.6-23.2 14.6-23.2l.2-.2c-7-.2-11.4-2.2-11.4-2.2-.8-.2-.6-1.2-.6-1.2-.2-.4 1.6-.8 1.6-.8 3.4-1.2 14.8-2.2 14.8-2.2 13.4-19.2 15.4-22.8 15.4-22.8 3.2-4.8 3-8 3-8 0-.4-.2-.6-.2-.6-.2-.8.8-1 .8-1 .6 0 2.4.8 2.4.8 9.4 4.2 11.2 12 11.2 12 .8 4.8-3.4 9.8-3.4 9.8l-7 8.6c7.6.2 9.6.6 9.6.6 2.4.2 2.4 1.2 2.4 1.2.6 1.4-2.2 2.2-2.2 2.2z" class="st0"/>
      <path d="M315.5 106.6c-5.4 6.4-10.8 12-14.6 14.8-2.2 1.6-5.4 1.6-5.4 1.6-6.2-.4-11.6-4.6-11.6-4.6-5-3.6-7.2-6-7.2-6-4.8-4-4.6-11.2-4.6-11.2-.4-11.2 6.8-23 6.8-23 2.2-3.8 12.8-22.2 35.6-31.2.6-.2 2 .8 2 .8 6.8 4.6 10.2 12 10.2 12 .4.4.6.8.6.8.6.2 1.2 1.2 1.2 1.2 1.4 1.4.4 4.2.4 4.2-2.2 5.8-8.2 11.8-8.2 11.8-10 11-17.4 10.2-17.4 10.2-4-.6-8.8-6.2-8.8-6.2-4 4.8-7.2 11.4-7.2 11.4-1.2 2.4-2.2 5-3 7.8-.4 1.6-.8 3.4-1 5.2-.4 9.2 4.8 9.8 4.8 9.8 4.2.4 13-6.2 13-6.2 8-6.4 16.8-14.6 16.8-14.6 3.8-3.2 11-12.2 15.8-17.4 1.4-1.6 2.4-1.2 2.4-1.2s1.2.4 0 2.4c-.8 1.2-10.6 15.6-20.6 27.6zm-19.8-26s3 3.6 10.8-1.2c0 0 7.2-4.8 14-16 0 0-16.4 5-24.8 17.2z" class="st0"/>
      <path d="M426.7 23.4c-5.6 9.6-8.8 13.6-8.8 13.6-7.8 12.2-16.2 23.4-16.2 23.4-6.8 10-17.4 26-18.4 27.2-11 17.4-11.4 26.6-11.4 26.6.4 0 1.2-.6 1.2-.6 13.2-10.8 27.2-28.2 27.2-28.2l9.2-11c1.2-1.4 2.2-.8 2.2-.8 1 .4 0 1.8 0 1.8-21.4 31.2-24 34.6-24 34.6-6.4 9.4-8 11-8 11-2.2 2.4-5.2 2-5.2 2-1.6.2-4.4-2.2-4.4-2.2-5-4-6.8-6.8-6.8-6.8-4.2-3.2-1.4-14.2-1.4-14.2 1.4-5.4 3.4-8.4 3.4-8.4l.4-.6-.4-.4c-13.4 19-17.6 25.8-17.6 25.8l-3.4 5.4c-.8 1.4-2.2 1.4-2.2 1.4-.8 0-3.2-1-3.2-1-6.8-3.8-10-7.2-10-7.2-8.4-7.4 0-28.6 0-28.6 3.2-8.2 10.4-17.6 10.4-17.6 4.8-6.4 11.6-13 20.4-18 2-1.2 4.2-2.2 6.4-3l2.8-1.2c1.8-1 3.2.4 3.2.4 2 1.2 4.2 3.4 4.2 3.4 2.4 1.8 4.4 5 5 8.2l1 1c.6.6 1 1.4 1 2l1.4-1.8c19-30.4 20.2-33.2 20.2-33.2 8.2-13.4 8-20 8-20 .6-2.4-.6-5-.6-5-.2-.4.2-.8.2-.8.2-.6 1.4-.2 1.4-.2 4.6 1.8 9 6.2 9 6.2 5.6 5.2 5.4 10.2 5.4 10.2 0 3.8-1.6 6.6-1.6 6.6zm-83.6 65.4c-9.2 17.4-7 25-7 25 0 .4.4 0 .4 0 24.4-24.4 33.4-36.4 33.4-36.4 7-9.2 8.8-14.4 8.8-14.4.4-1.6.2-3.4.2-3.4-23.8 6-35.8 29.2-35.8 29.2zM455.5 119.6c-2.4 3.4-5.8 3.4-5.8 3.4-5.8-.2-10-5.6-10-5.6-7.2-5.4-7.4-13.6-7.4-13.6-.2-5.8 4.6-15.8 4.6-15.8 8-18.4 26.4-41.2 26.4-41.2.6-.6 1.6-.4 1.6-.4.8-.2 2.2.8 2.2.8 5.6 4.6 7.6 7 7.6 7 1.2 1.2 1.4 2.4 1.4 2.4.2.8-1.4 2.6-1.4 2.6-13 15.6-20.4 28.4-20.4 28.4-12 20.8-11 26.2-11 26.2 1 1 2.4 0 2.4 0 16-12.4 37.4-38.2 37.4-38.2l1-1.2c.8-1 2-.2 2-.2 1 .8.2 2 .2 2-24.4 35.6-30.8 43.4-30.8 43.4zm40.2-97.4c-16.2 16.2-22.6 20.6-22.6 20.6l-2 1.6c-1 .8-2-.2-2-.2-1.4-.4.6-4.2.6-4.2 11.6-23.2 14.6-27.8 14.6-27.8.6-1.6 2-2 2-2 .6-.6 2.6.4 2.6.4.8.6 3.6 2.4 3.6 2.4 3.2 2.2 4 3.4 4 3.4 1.2 1 1 2.6 1 2.6-.4 1.6-1.8 3.2-1.8 3.2z" class="st0"/>
      <path d="M529.9 119.2c-3.4 4-6.2 3.6-6.2 3.6-2.2 0-6.2-3.4-6.2-3.4l-4.6-3.2c-4.6-3.4-4.4-9.4-4.4-9.4-.2-5.6 4.2-13.8 4.2-13.8 4-8.2 12.2-21.2 12.2-21.2l-.4-.4c-31 32-38.8 42-38.8 42-4.8 6.2-4.8 7.2-4.8 7.2-.4.6-.4 1.6-.4 1.6 0 1.2-1 1.2-1 1.2-1.4 0-2.4-1.2-2.4-1.2-3.2-3.2-4-5.4-4-5.4-2.2-4.8.8-10.4.8-10.4 16.6-29.6 22.8-40.6 22.8-40.6l-.2-.2-10 11.2c-10.6 12-11.4 13.8-11.4 13.8-1.4 1.2-2.4.2-2.4.2-1.2-1.2-.2-2.6-.2-2.6 17.2-21.4 21.6-27 32.2-39.4 1-1.6 2.6-.6 2.6-.6 2.2 1.4 5.8 3.6 5.8 3.6 3.4 2.2 4.6 4 4.6 4 2.4 2.2.6 5.6.6 5.6-12.6 20.6-15.4 24.4-15.4 24.4.2.8.8.4.8.4 15.2-14.4 25.4-26.6 25.4-26.6l8-9c1.8-2.8 3.2-2.8 3.2-2.8 1-.4 2.8 1.2 2.8 1.2 6.8 5.8 8.4 8.4 8.4 8.4 2.2 1.8 0 5 0 5-29.4 35.4-32.6 51-32.6 51 0 .8 1.2.2 1.2.2 7 .2 37.8-38.2 37.8-38.2.8-1.6 1.8-.8 1.8-.8 1.8.2.8 2 .8 2-24.2 35.2-30.6 42.6-30.6 42.6zM720.7 42.2c-11.4 5.4-21.6 6.2-21.6 6.2v.2c18.8 5.2 19 25.2 19 25.2 1.8 16.2-15.8 29-15.8 29-13.2 12.2-39.2 20-39.2 20-11.2 3.2-24.8 6-40.6 6.2-16.8.2-30.4-7-30.4-7-7.6-3.8-14-9.6-16-18.6-.4-2-.4-5.4-.4-5.4-.6-8.4 7.4-17.8 7.4-17.8 2.8-3.2 6.6-6.4 12-9.6 13.4-8 34.4-9.2 34.4-9.2l35.2-39c.4-.4-.4-.4-.4-.4-34 4-36.6 6.4-36.6 6.4-.2.2.4.6.4.6 2 .8 3.4 1 3.4 1 1 .2.8.6.8.6.2.8-1.4 1-1.4 1-5.6.8-10.4.2-10.4.2-4.4-.4-4.6-5.8-4.6-5.8-1.2-7-.8-10.2-.8-10.2.2-2 2.2-2.6 2.2-2.6 17.6-7 55.4-8.2 55.4-8.2 20.8-.8 38 3 38 3 8.6 1.4 16 5.8 16 5.8 6.6 4 6 14 6 14 .6 7.6-12 14.4-12 14.4zm-49.4 12c-3.6-.4-8.8.4-8.8.4-2 .2-4.2.8-6.6 1.6l-5.4 5.8c4.4.6 11 3.2 11 3.2 8.6 2.4 14.2 9.4 14.2 9.4 2 2.2 3.8 5 4.8 8.2 1.2 2.8-1 4-1 4-1.2.4-2.2-1.8-2.2-1.8-4.8-7-14.8-9.8-14.8-9.8-8-2.8-21.2-3.4-21.2-3.4l-.4.2-26.4 28.2c-1.6 1.8-3 4.4-3 4.4-.6 1-1.2 2-1.4 3.2-.4 2.2-2 2.6-2 2.6-1.8.8-3.6-2-3.6-2l-3.2-6c-2-3.4 1.4-8.2 1.4-8.2C615.1 76.8 618.5 74 618.5 74c-35 5.2-37.8 25.4-37.8 25.4 5.6 17 36.4 16.4 36.4 16.4 18.8.4 41.8-6 41.8-6 14.2-3.8 30-10.4 43.8-21 9.4-7.2 10.8-15 10.8-15-.2-18.6-42.2-19.6-42.2-19.6zm10-33.4 1 2.8c1.6 2.8-1.2 5.6-1.2 5.6l-15.4 16.6c16.6.4 42.2-11.2 42.2-11.2 5-2.2 10.4-5 16-8.2-4.6-6.6-42.6-5.6-42.6-5.6zM760.3 106.6c-5.4 6.4-10.8 12-14.6 14.8-2.2 1.6-5.4 1.6-5.4 1.6-6.2-.4-11.6-4.6-11.6-4.6-5-3.6-7.2-6-7.2-6-4.8-4-4.6-11.2-4.6-11.2-.4-11.2 6.8-23 6.8-23 2.2-3.8 12.8-22.2 35.6-31.2.6-.2 2 .8 2 .8 6.8 4.6 10.2 12 10.2 12 .4.4.6.8.6.8.6.2 1.2 1.2 1.2 1.2 1.4 1.4.4 4.2.4 4.2-2.2 5.8-8.2 11.8-8.2 11.8-10 11-17.4 10.2-17.4 10.2-4-.6-8.8-6.2-8.8-6.2-4 4.8-7.2 11.4-7.2 11.4-1.2 2.4-2.2 5-3 7.8-.4 1.6-.8 3.4-1 5.2-.4 9.2 4.8 9.8 4.8 9.8 4.2.4 13-6.2 13-6.2 8-6.4 16.8-14.6 16.8-14.6 3.8-3.2 11-12.2 15.8-17.4 1.4-1.6 2.4-1.2 2.4-1.2s1.2.4 0 2.4c-.8 1.2-10.6 15.6-20.6 27.6zm-19.8-26s3 3.6 10.8-1.2c0 0 7.2-4.8 14-16 0 0-16.4 5-24.8 17.2z" class="st0"/>
      <path d="M845.9 83.4s-7.4 9.2-25.6 36.8c0 0-2 3-5.4 2.8-1.4 0-2.6-.4-3.6-1 0 0-1.2-.6-2.4-1.8-5-5-5.2-11.2-5.2-11.2-.4-6.8 3.2-14.2 3.2-14.2 2.2-5.4 6.4-12.2 6.4-12.2h-.4c-8 10.8-13.8 19.2-13.8 19.2-5.8 8-7.8 11.6-7.8 11.6l-2.4 4.2c-1.2 2.8-3 3.4-3 3.4-1.8.4-3.6-.8-3.6-.8-7.4-5.4-9.8-9-9.8-9-2.6-3-2.6-7.4-2.6-7.4-1.4-16.8 15-36 15-36 11.8-14 29-21.8 29-21.8.2-.2.6-.4.6-.4.4-.8 1-.8 1-.8.4-.2 1.2.2 1.2.2 7.4 3.6 12 15 12 15 .6 2 .4 3.2.4 3.2 0 .8-.4 1-.4 1-.8.2-1.4-.8-1.4-.8l-2.2-2.8s-.4-.8-1-.8c-.8 0-1.4.2-1.4.2-14.2 5.2-24.6 15.6-24.6 15.6-18.6 16-18.2 36.2-18.2 36.2.2.4.6 0 .6 0 26.6-28.8 32.8-35.6 32.8-35.6l8.2-8.8c1.8-1.8 3.8 0 3.8 0 2 1.6 3.8 3 3.8 3 1.4 1.2 2.8 2.2 3 2.4 4.2 2.8 1.4 6 1.4 6-1.8 2.4-10 15.2-10 15.2-3.2 5.2-8.8 15.4-9.6 18-.2 1 .2.8.2.8s3.2-1.8 15.2-15c3.6-3.8 13.8-15.6 14.8-16.8 0 0 1-1.2 2 0 0 0 1 .8-.2 2.4z" class="st0"/>
      <path d="M922.9 74.8c-23 32.4-30.2 44-30.2 44-2.6 3.8-5.8 3.6-5.8 3.6s-11.2-.2-13.6-14.2c-.4-1.8-.2-4.4.2-7.4 1-6.8 4.2-14.2 4.2-14.2l-.4-.2c-17.4 28.2-22.8 34.6-22.8 34.6-2 2.2-5 1.4-5 1.4-4.4-1.4-6.8-5.4-6.8-5.4l-1.6-2.2c-5.8-6.8-4.6-16.6-4.6-16.6 1.2-14.6 18.6-36.8 18.6-36.8l9-12c.8-1.2.8-3 .8-3-.4-1 .8-1.4.8-1.4 1.2-.8 4.2 1.4 4.2 1.4 6.4 4.6 7 10 7 10 .4 3.6-2.4 6.8-2.4 6.8-18 17.4-24.6 37.4-24.6 37.4-2.6 8.4-2 12-2 12 0 .4.6-.2.6-.2 50.2-59.6 51.6-61.6 51.6-61.6.2-1.6 1-1.6 1-1.6.6-.2 1.6.6 1.6.6 5.8 4 9 7.6 9 7.6 1.4 1.4 1 3.6 1 3.6-.4 3-3.4 5.8-3.4 5.8-5.2 6.6-9 12-9 12-16.6 22-14 32-14 32l.2.2c24.2-24 34-38 34-38 1-1.6 2.4-.8 2.4-.8 1.4.8 0 2.6 0 2.6z" class="st0"/>
      <path d="M966.3 54.2c-9.8 2.8-15.6 2.8-15.6 2.8-29.8 36-31 53.4-31 53.4-.2 3 1.4 4.6 1.4 4.6 1 .4 3-.6 3-.6 9.6-5.2 24.8-22.4 24.8-22.4l18-20.8c.8-.8 1.6-.2 1.6-.2.8.4-.2 1.6-.2 1.6-14.2 20.2-21.8 32.4-21.8 32.4-9.2 13.6-13.4 16-13.4 16-2.8 2-5.4 1.8-5.4 1.8-1.2.2-5.2-1.4-5.2-1.4-3-1.2-6.4-4.2-6.4-4.2-2.2-2-4.4-4.6-5.8-8-2.2-3.4-1.4-10.8-1.4-10.8.6-4.4 2.4-10 6.2-17.2 4.6-8.6 14.6-23.2 14.6-23.2l.2-.2c-7-.2-11.4-2.2-11.4-2.2-.8-.2-.6-1.2-.6-1.2-.2-.4 1.6-.8 1.6-.8 3.4-1.2 14.8-2.2 14.8-2.2 13.4-19.2 15.4-22.8 15.4-22.8 3.2-4.8 3-8 3-8 0-.4-.2-.6-.2-.6-.2-.8.8-1 .8-1 .6 0 2.4.8 2.4.8 9.4 4.2 11.2 12 11.2 12 .8 4.8-3.4 9.8-3.4 9.8l-7 8.6c7.6.2 9.6.6 9.6.6 2.4.2 2.4 1.2 2.4 1.2.6 1.4-2.2 2.2-2.2 2.2z" class="st0"/>
      <path d="M1027.9 65.4c-13.6 15.4-30.6 47.2-30.6 47.2l-18.4 34.8c-7.2 13.6-16.6 22.8-16.6 22.8-4.8 4.2-10.6 7-16.8 6.8-11.2-.4-18.8-10.8-18.8-10.8-1.4-1.4-.6-2-.6-2 .6-.4 1.2.2 1.2.2 4.8 3.6 9.4 3.4 9.4 3.4 14.4 3 32.4-30.8 32.4-30.8l26.2-51.6-.4-.2c-3.6 5.8-8 13-8 13-5.4 8.4-12.6 18.4-16.2 22.2-3.2 3.4-5.6 2.6-5.6 2.6-5-1.8-8-5.4-10-8.6 0 0-3.4-5-3.6-10.2-.2-4.8 2-10.4 4.6-15.8 2.2-4.8 4.8-9.4 7.4-13 0 0 3.2-5 6-8.4 2-2.6 3.8-5 5.8-7.8 1.2-1.8 2.6-3.6 3.8-5.6 2.2-3.2 2.4-5 2.4-5 0-.6.2-.8.2-.8 0-.8.2-1 .2-1 .4-.6 1.8.4 1.8.4 4.2 2.6 7.4 5.6 7.4 5.6 3.4 2.6 2 7.6 2 7.6 0 1.2-2.4 4.4-2.4 4.4C978.1 80.2 971.5 89 971.5 89c-4 5.2-6.4 11.2-6.4 11.2-1 2.4-1.8 4.8-2 7-.2 4 .6 5.6.6 5.6 5.6-5.8 13.8-14.8 13.8-14.8 5.4-5.8 11.6-13 18.2-20.8l12.4-14.6 8.4-9.8c1.6-2.8 3.4-2.4 3.4-2.4.6 0 2 1 2 1 6.4 3 8.8 7 8.8 7 2.4 2 .4 4 .4 4-1.4 1.2-3.2 3-3.2 3z" class="st0"/>
    </svg>